/* XPM */
static char *accuracy_xpm[] = {
/* columns rows colors chars-per-pixel */
"120 56 9 1 ",
"  c #FFFFFE",
". c #FFBF00",
"X c #FFBF00",
"o c #FFBF00",
"O c #FFBF00",
"+ c #FFBF00",
"@ c #FFBF00",
"# c #FFBF00",
"$ c #FFBF00",
/* pixels */
"                                                                                                                        ",
"                                                                                                                        ",
"                                                                                                                        ",
"                                                                                                                        ",
"                                                                                                                        ",
"                                                                                                                        ",
"                                                                                                                        ",
"                                                                                                                        ",
"                                                                                                                        ",
"                                                                                                                        ",
"                                                                                                                        ",
"                                                                                                                        ",
"                                                                                                                        ",
"                                                                                                                        ",
"                                                                                                                        ",
"     $..$         o..X      #o....o#    #o....o#  O..o    O..oO.......o@      o..X      #o....o#  @...$ $...@           ",
"#X.+ @.X          ....$    @........@  @........@ O..o    O..oO.........+     ....$    @........@  X..@ @...            ",
"+oOX o.+         #....+   $X.........$$X.........$O..o    O..oO..........$   #....+   $X.........$ +..o o..+            ",
"O+$X ..#         O....o   @...$  $...+@...$  $...+O..o    O..oO..o   $X..+   O....o   @...$  $...+ $...#...$            ",
"++#X#..          X.....   +..o    o..O+..o    o..OO..o    O..oO..o    o..o   X.....   +..o    o..O  O..X..o             ",
"#X.+O.O         $......#  O..o        O..o        O..o    O..oO..o   $X..O  $......#  O..o          #.....#             ",
"    X.@         @...X..+  O..o        O..o        O..o    O..oO..........#  @...X..+  O..o           X...X              ",
"   #..$         O..oO..o  O..o        O..o        O..o    O..oO.........X   O..oO..o  O..o           @...+              ",
"   +.o          X..+@...  O..o        O..o        O..o    O..oO..........#  X..+@...  O..o           $...#              ",
"   o.+O.X$     $...#$...# O..o        O..o        O..o    O..oO..o   $X..O $...#$...# O..o           $...#              ",
"  $..$.+o@     @...  X..+ +..o    o..O+..o    o..O+..o    O..oO..o    O..o @...  X..+ +..o    o..O   $...#              ",
"  @.X . O+     O..o  O..o @...$  $...+@...$  $...+@...$  $X..OO..o    O..o O..o  O..o @...$  $...+   $...#              ",
"  o.+ .#O@     X..+  @...$$X.........$$X.........$$X.........$O..o    O..o X..+  @...$$X.........$   $...#              ",
"  ..# O.X$    #...#  $...@ @........@  @........@  @........+ O..o    O..o#...#  $...@ @........@    $...#              ",
" @.X          +..X    o..O  #o....o#    #o....o#    #o....o#  O..o    O..o+..X    o..O  #o....o#     $...#              ",
"                                                                                                                        ",
"                                                                                                                        ",
"                                                                                                                        ",
"                                                                                                                        ",
"                                                                                                                        ",
"                                                                                                                        ",
"                                                                                                                        ",
"                                                                                                                        ",
"                                                                                                                        ",
"                                                                                                                        ",
"                                                                                                                        ",
"                                                                                                                        ",
"                                                                                                                        ",
"                                                                                                                        ",
"                                                                                                                        ",
"                                                                                                                        ",
"                                                                                                                        ",
"                                                                                                                        ",
"                                                                                                                        ",
"                                                                                                                        ",
"                                                                                                                        ",
"                                                                                                                        ",
"                                                                                                                        ",
"                                                                                                                        ",
"                                                                                                                        ",
"                                                                                                                        "
};
