/* XPM */
static char *exit_xpm[] = {
/* columns rows colors chars-per-pixel */
"86 69 9 1 ",
"  c #FFFFFE",
". c #FFBF00",
"X c #FFFFFE",
"o c #FFFFFE",
"O c #FFFFFE",
"+ c #FFFFFE",
"@ c #FFFFFE",
"# c #FFFFFE",
"$ c #FFFFFE",
/* pixels */
"                                                                                      ",
"                                                                                      ",
"                                                                                      ",
"                                                                                      ",
"                                                                                      ",
"                                                                                      ",
"                                                                                      ",
"                                                                                      ",
"                                                                                      ",
"                                                                                      ",
"                                                                                      ",
"                                                                                      ",
"                                                                                      ",
"                                                                                      ",
"                                                                                      ",
"     $+oX.............@ X......@     #.......$#......##...................#           ",
"    @.................@ +......o     O......O #......##...................#           ",
"   O..................@ $.......$   $.......$ #......##...................#           ",
"  +...................@  O......+   @......o  #......##...................#           ",
" $....................@  $......X   X......#  #......##...................#           ",
" O....................@   O......@ #......o   #......##...................#           ",
" X......#                 #......o O......@   #......#       o.....o                  ",
"$......+                   o......$......X    #......#       o.....o                  ",
"$......#                   #......X......@    #......#       o.....o                  ",
"#......#                    X...........X     #......#       o.....o                  ",
"#......#                    @...........+     #......#       o.....o                  ",
"#.....................@      X..........$     #......#       o.....o                  ",
"#.....................@      +.........O      #......#       o.....o                  ",
"#.....................@       .........$      #......#       o.....o                  ",
"#.....................@       .........$      #......#       o.....o                  ",
"#.....................@      +.........O      #......#       o.....o                  ",
"#.....................@      X..........$     #......#       o.....o                  ",
"#......#                    @...........+     #......#       o.....o                  ",
"#......#                    X...........X     #......#       o.....o                  ",
"$......#                   #......X......@    #......#       o.....o                  ",
"$......+                   o......#......X    #......#       o.....o                  ",
" X......#                 #......o O......@   #......#       o.....o                  ",
" O....................@   O......@ #......o   #......#       o.....o                  ",
" $....................@  $......X   X......#  #......#       o.....o                  ",
"  +...................@  O......+   @......o  #......#       o.....o                  ",
"   O..................@ $.......$   $.......$ #......#       o.....o                  ",
"    +.................@ +......o     O......O #......#       o.....o                  ",
"     $+oX.............@ X......@     #.......$#......#       o.....o                  ",
"                                                                                      ",
"                                                                                      ",
"                                                                                      ",
"                                                                                      ",
"                                                                                      ",
"                                                                                      ",
"                                                                                      ",
"                                                                                      ",
"                                                                                      ",
"                                                                                      ",
"                                                                                      ",
"                                                                                      ",
"                                                                                      ",
"                                                                                      ",
"                                                                                      ",
"                                                                                      ",
"                                                                                      ",
"                                                                                      ",
"                                                                                      ",
"                                                                                      ",
"                                                                                      ",
"                                                                                      ",
"                                                                                      ",
"                                                                                      ",
"                                                                                      ",
"                                                                                      "
};
