/* XPM */
static char *a_xpm[] = {
/* columns rows colors chars-per-pixel */
"23 56 9 1 ",
"  c None",
". c #FFBF00",
"X c #FFC71F",
"o c #FFCF3F",
"O c #FFD75F",
"+ c #FFDF7F",
"@ c #FFE79F",
"# c #FFEFBF",
"$ c #FFF7DF",
/* pixels */
"                       ",
"                       ",
"                       ",
"                       ",
"                       ",
"                       ",
"                       ",
"                       ",
"                       ",
"                       ",
"                       ",
"                       ",
"                       ",
"                       ",
"                       ",
"    o..X               ",
"    ....$              ",
"   #....+              ",
"   O....o              ",
"   X.....              ",
"  $......#             ",
"  @...X..+             ",
"  O..oO..o             ",
"  X..+@...             ",
" $...#$...#            ",
" @...  X..+            ",
" O..o  O..o            ",
" X..+  @...$           ",
"#...#  $...@           ",
"+..X    o..O           ",
"                       ",
"                       ",
"                       ",
"                       ",
"                       ",
"                       ",
"                       ",
"                       ",
"                       ",
"                       ",
"                       ",
"                       ",
"                       ",
"                       ",
"                       ",
"                       ",
"                       ",
"                       ",
"                       ",
"                       ",
"                       ",
"                       ",
"                       ",
"                       ",
"                       ",
"                       "
};

/* XPM */
static char *b_xpm[] = {
/* columns rows colors chars-per-pixel */
"23 56 9 1 ",
"  c None",
". c #FFBF00",
"X c #FFC71F",
"o c #FFCF3F",
"O c #FFD75F",
"+ c #FFDF7F",
"@ c #FFE79F",
"# c #FFEFBF",
"$ c #FFF7DF",
/* pixels */
"                       ",
"                       ",
"                       ",
"                       ",
"                       ",
"                       ",
"                       ",
"                       ",
"                       ",
"                       ",
"                       ",
"                       ",
"                       ",
"                       ",
"                       ",
"O.......o@             ",
"O.........+            ",
"O..........$           ",
"O..o   $X..+           ",
"O..o    o..o           ",
"O..o   $X..O           ",
"O..........#           ",
"O.........X            ",
"O..........#           ",
"O..o   $X..O           ",
"O..o    o..o           ",
"O..o   $X..O           ",
"O..........$           ",
"O.........+            ",
"O.......o#             ",
"                       ",
"                       ",
"                       ",
"                       ",
"                       ",
"                       ",
"                       ",
"                       ",
"                       ",
"                       ",
"                       ",
"                       ",
"                       ",
"                       ",
"                       ",
"                       ",
"                       ",
"                       ",
"                       ",
"                       ",
"                       ",
"                       ",
"                       ",
"                       ",
"                       ",
"                       "
};

/* XPM */
static char *c_xpm[] = {
/* columns rows colors chars-per-pixel */
"23 56 9 1 ",
"  c None",
". c #FFBF00",
"X c #FFC71F",
"o c #FFCF3F",
"O c #FFD75F",
"+ c #FFDF7F",
"@ c #FFE79F",
"# c #FFEFBF",
"$ c #FFF7DF",
/* pixels */
"                       ",
"                       ",
"                       ",
"                       ",
"                       ",
"                       ",
"                       ",
"                       ",
"                       ",
"                       ",
"                       ",
"                       ",
"                       ",
"                       ",
"                       ",
"  #o....o#             ",
" @........@            ",
"$X.........$           ",
"@...$  $...+           ",
"+..o    o..O           ",
"O..o                   ",
"O..o                   ",
"O..o                   ",
"O..o                   ",
"O..o                   ",
"+..o    o..O           ",
"@...$  $...+           ",
"$X.........$           ",
" @........@            ",
"  #o....o#             ",
"                       ",
"                       ",
"                       ",
"                       ",
"                       ",
"                       ",
"                       ",
"                       ",
"                       ",
"                       ",
"                       ",
"                       ",
"                       ",
"                       ",
"                       ",
"                       ",
"                       ",
"                       ",
"                       ",
"                       ",
"                       ",
"                       ",
"                       ",
"                       ",
"                       ",
"                       "
};

/* XPM */
static char *d_xpm[] = {
/* columns rows colors chars-per-pixel */
"23 56 9 1 ",
"  c None",
". c #FFBF00",
"X c #FFC71F",
"o c #FFCF3F",
"O c #FFD75F",
"+ c #FFDF7F",
"@ c #FFE79F",
"# c #FFEFBF",
"$ c #FFF7DF",
/* pixels */
"                       ",
"                       ",
"                       ",
"                       ",
"                       ",
"                       ",
"                       ",
"                       ",
"                       ",
"                       ",
"                       ",
"                       ",
"                       ",
"                       ",
"                       ",
"O.......o@             ",
"O.........+            ",
"O..........$           ",
"O..o   $X..+           ",
"O..o    O..o           ",
"O..o    O..o           ",
"O..o    O..o           ",
"O..o    O..o           ",
"O..o    O..o           ",
"O..o    O..o           ",
"O..o    O..o           ",
"O..o   $X..O           ",
"O..........$           ",
"O.........+            ",
"O.......o#             ",
"                       ",
"                       ",
"                       ",
"                       ",
"                       ",
"                       ",
"                       ",
"                       ",
"                       ",
"                       ",
"                       ",
"                       ",
"                       ",
"                       ",
"                       ",
"                       ",
"                       ",
"                       ",
"                       ",
"                       ",
"                       ",
"                       ",
"                       ",
"                       ",
"                       ",
"                       "
};

/* XPM */
static char *e_xpm[] = {
/* columns rows colors chars-per-pixel */
"23 56 9 1 ",
"  c None",
". c #FFBF00",
"X c #FFC71F",
"o c #FFCF3F",
"O c #FFD75F",
"+ c #FFDF7F",
"@ c #FFE79F",
"# c #FFEFBF",
"$ c #FFF7DF",
/* pixels */
"                       ",
"                       ",
"                       ",
"                       ",
"                       ",
"                       ",
"                       ",
"                       ",
"                       ",
"                       ",
"                       ",
"                       ",
"                       ",
"                       ",
"                       ",
"  #o.......o           ",
" @.........o           ",
"$X.........o           ",
"@...#                  ",
"+..X                   ",
"O..o                   ",
"O..........o           ",
"O..........o           ",
"O..........o           ",
"O..o                   ",
"+..X                   ",
"@...#                  ",
"$X.........o           ",
" @.........o           ",
"  #o.......o           ",
"                       ",
"                       ",
"                       ",
"                       ",
"                       ",
"                       ",
"                       ",
"                       ",
"                       ",
"                       ",
"                       ",
"                       ",
"                       ",
"                       ",
"                       ",
"                       ",
"                       ",
"                       ",
"                       ",
"                       ",
"                       ",
"                       ",
"                       ",
"                       ",
"                       ",
"                       "
};

/* XPM */
static char *f_xpm[] = {
/* columns rows colors chars-per-pixel */
"23 56 9 1 ",
"  c None",
". c #FFBF00",
"X c #FFC71F",
"o c #FFCF3F",
"O c #FFD75F",
"+ c #FFDF7F",
"@ c #FFE79F",
"# c #FFEFBF",
"$ c #FFF7DF",
/* pixels */
"                       ",
"                       ",
"                       ",
"                       ",
"                       ",
"                       ",
"                       ",
"                       ",
"                       ",
"                       ",
"                       ",
"                       ",
"                       ",
"                       ",
"                       ",
"  #o.......o           ",
" @.........o           ",
"$X.........o           ",
"@...#                  ",
"+..X                   ",
"O..o                   ",
"O..........o           ",
"O..........o           ",
"O..........o           ",
"O..o                   ",
"O..o                   ",
"O..o                   ",
"O..o                   ",
"O..o                   ",
"O..o                   ",
"                       ",
"                       ",
"                       ",
"                       ",
"                       ",
"                       ",
"                       ",
"                       ",
"                       ",
"                       ",
"                       ",
"                       ",
"                       ",
"                       ",
"                       ",
"                       ",
"                       ",
"                       ",
"                       ",
"                       ",
"                       ",
"                       ",
"                       ",
"                       ",
"                       ",
"                       "
};

/* XPM */
static char *g_xpm[] = {
/* columns rows colors chars-per-pixel */
"23 56 9 1 ",
"  c None",
". c #FFBF00",
"X c #FFC71F",
"o c #FFCF3F",
"O c #FFD75F",
"+ c #FFDF7F",
"@ c #FFE79F",
"# c #FFEFBF",
"$ c #FFF7DF",
/* pixels */
"                       ",
"                       ",
"                       ",
"                       ",
"                       ",
"                       ",
"                       ",
"                       ",
"                       ",
"                       ",
"                       ",
"                       ",
"                       ",
"                       ",
"                       ",
"  #o....o#             ",
" @........@            ",
"$X.........$           ",
"@...$  $...+           ",
"+..o    o..O           ",
"O..o                   ",
"O..o   +OOO+           ",
"O..o   o...o           ",
"O..o   o...o           ",
"O..o   OX..o           ",
"+..o    O..o           ",
"@...$  $X..O           ",
"$X.........@           ",
" @........O            ",
"  #o....X@             ",
"                       ",
"                       ",
"                       ",
"                       ",
"                       ",
"                       ",
"                       ",
"                       ",
"                       ",
"                       ",
"                       ",
"                       ",
"                       ",
"                       ",
"                       ",
"                       ",
"                       ",
"                       ",
"                       ",
"                       ",
"                       ",
"                       ",
"                       ",
"                       ",
"                       ",
"                       "
};
