/* XPM */
static char *mouse_xpm[] = {
/* columns rows colors chars-per-pixel */
"32 32 3 1 ",
"  c #FFFFFF",
". c #000000",
"X c #FFFFFE",
/* pixels */
"XXXX..XXXXXXXXXXXXXXXXXXXXXXXXXX",
"XXXX....XXXXXXXXXXXXXXXXXXXXXXXX",
"XXXX.....XXXXXXXXXXXXXXXXXXXXXXX",
"XXXX.......XXXXXXXXXXXXXXXXXXXXX",
"XXXX..  ....XXXXXXXXXXXXXXXXXXXX",
"XXXX..    ....XXXXXXXXXXXXXXXXXX",
"XXXX..     ....XXXXXXXXXXXXXXXXX",
"XXXX..       ....XXXXXXXXXXXXXXX",
"XXXX..        .....XXXXXXXXXXXXX",
"XXXX..          ....XXXXXXXXXXXX",
"XXXX..           .....XXXXXXXXXX",
"XXXX..             ....XXXXXXXXX",
"XXXX..              .....XXXXXXX",
"XXXX..                ....XXXXXX",
"XXXX..                 .....XXXX",
"XXXX..                ......XXXX",
"XXXX..            .........XXXXX",
"XXXX..           .......XXXXXXXX",
"XXXX..           ....XXXXXXXXXXX",
"XXXX..            ...XXXXXXXXXXX",
"XXXX..     ..      ..XXXXXXXXXXX",
"XXXX..   .....     ...XXXXXXXXXX",
"XXXX..  .......     ...XXXXXXXXX",
"XXXX.......XX..      ..XXXXXXXXX",
"XXXX.....XXXX...     ...XXXXXXXX",
"XXXX....XXXXXX...     ...XXXXXXX",
"XXXX...XXXXXXX...     ...XXXXXXX",
"XXXXXXXXXXXXXX...    ....XXXXXXX",
"XXXXXXXXXXXXXXXX... .....XXXXXXX",
"XXXXXXXXXXXXXXXX.......XXXXXXXXX",
"XXXXXXXXXXXXXXXXX.....XXXXXXXXXX",
"XXXXXXXXXXXXXXXXXX..XXXXXXXXXXXX"
};
