/* XPM */
static char *xpm_1[] = {
/* columns rows colors chars-per-pixel */
"21 60 7 1 ",
"  c #FFFFFE",
". c #FFBF00",
"X c #FFBF00",
"o c #FFBF00",
"O c #FFBF00",
"+ c #FFBF00",
"@ c #FFBF00",
/* pixels */
"                     ",
"                     ",
"                     ",
"                     ",
"                     ",
"                     ",
"                     ",
"                     ",
"                     ",
"                     ",
"                     ",
"                     ",
"                     ",
"                     ",
"                     ",
"   @oX...O           ",
"  O......O           ",
" +.......O           ",
" X.......O           ",
"+........O           ",
"O........O           ",
"    @....O           ",
"    @....O           ",
"    @....O           ",
"    @....O           ",
"    @....O           ",
"    @....O           ",
"    @....O           ",
"    @....O           ",
"    @....O           ",
"    @....O           ",
"    @....O           ",
"    @....O           ",
"    @....O           ",
"                     ",
"                     ",
"                     ",
"                     ",
"                     ",
"                     ",
"                     ",
"                     ",
"                     ",
"                     ",
"                     ",
"                     ",
"                     ",
"                     ",
"                     ",
"                     ",
"                     ",
"                     ",
"                     ",
"                     ",
"                     ",
"                     ",
"                     ",
"                     ",
"                     ",
"                     "
};

/* XPM */
static char *xpm_2[] = {
/* columns rows colors chars-per-pixel */
"27 60 9 1 ",
"  c #FFFFFE",
". c #FFBF00",
"X c #FFBF00",
"o c #FFBF00",
"O c #FFBF00",
"+ c #FFBF00",
"@ c #FFBF00",
"# c #FFBF00",
"$ c #FFBF00",
/* pixels */
"                           ",
"                           ",
"                           ",
"                           ",
"                           ",
"                           ",
"                           ",
"                           ",
"                           ",
"                           ",
"                           ",
"                           ",
"                           ",
"                           ",
"                           ",
"   #OX....X+               ",
"  +.........X$             ",
" @...........X             ",
" X............+            ",
"#....+   $o...X            ",
"@....     @....            ",
"          @....            ",
"         $o...X            ",
"   #OX........+            ",
"  +..........X             ",
" +..........X$             ",
"$.........X+               ",
"@....@                     ",
"+...X                      ",
"+...X                      ",
"+..............$           ",
"+..............$           ",
"+..............$           ",
"+..............$           ",
"                           ",
"                           ",
"                           ",
"                           ",
"                           ",
"                           ",
"                           ",
"                           ",
"                           ",
"                           ",
"                           ",
"                           ",
"                           ",
"                           ",
"                           ",
"                           ",
"                           ",
"                           ",
"                           ",
"                           ",
"                           ",
"                           ",
"                           ",
"                           ",
"                           ",
"                           "
};

/* XPM */
static char *xpm_3[] = {
/* columns rows colors chars-per-pixel */
"27 60 8 1 ",
"  c #FFFFFE",
". c #FFBF00",
"X c #FFBF00",
"o c #FFBF00",
"O c #FFBF00",
"+ c #FFBF00",
"@ c #FFBF00",
"# c #FFBF00",
/* pixels */
"                           ",
"                           ",
"                           ",
"                           ",
"                           ",
"                           ",
"                           ",
"                           ",
"                           ",
"                           ",
"                           ",
"                           ",
"                           ",
"                           ",
"                           ",
"O.........XO#              ",
"O...........X#             ",
"O............X#            ",
"O.............O            ",
"         #o...X            ",
"          +....            ",
"          @....#           ",
"          @....#           ",
"O..............#           ",
"O..............#           ",
"O..............#           ",
"O..............#           ",
"          @....#           ",
"          @....            ",
"          o...X            ",
"O.............O            ",
"O............X#            ",
"O...........X@             ",
"O.........XO#              ",
"                           ",
"                           ",
"                           ",
"                           ",
"                           ",
"                           ",
"                           ",
"                           ",
"                           ",
"                           ",
"                           ",
"                           ",
"                           ",
"                           ",
"                           ",
"                           ",
"                           ",
"                           ",
"                           ",
"                           ",
"                           ",
"                           ",
"                           ",
"                           ",
"                           ",
"                           "
};

/* XPM */
static char *xpm_4[] = {
/* columns rows colors chars-per-pixel */
"27 60 8 1 ",
"  c #FFFFFE",
". c #FFBF00",
"X c #FFBF00",
"o c #FFBF00",
"O c #FFBF00",
"+ c #FFBF00",
"@ c #FFBF00",
"# c #FFBF00",
/* pixels */
"                           ",
"                           ",
"                           ",
"                           ",
"                           ",
"                           ",
"                           ",
"                           ",
"                           ",
"                           ",
"                           ",
"                           ",
"                           ",
"                           ",
"                           ",
"O...X     @....#           ",
"O...X     @....#           ",
"O...X     @....#           ",
"O...X     @....#           ",
"O...X     @....#           ",
"O...X     @....#           ",
"+...X     @....#           ",
"@....+    @....#           ",
" X.............#           ",
" +.............#           ",
"  O............#           ",
"   @oX.........#           ",
"          @....#           ",
"          @....#           ",
"          @....#           ",
"          @....#           ",
"          @....#           ",
"          @....#           ",
"          @....#           ",
"                           ",
"                           ",
"                           ",
"                           ",
"                           ",
"                           ",
"                           ",
"                           ",
"                           ",
"                           ",
"                           ",
"                           ",
"                           ",
"                           ",
"                           ",
"                           ",
"                           ",
"                           ",
"                           ",
"                           ",
"                           ",
"                           ",
"                           ",
"                           ",
"                           ",
"                           "
};

/* XPM */
static char *xpm_5[] = {
/* columns rows colors chars-per-pixel */
"27 60 9 1 ",
"  c #FFFFFE",
". c #FFBF00",
"X c #FFBF00",
"o c #FFBF00",
"O c #FFBF00",
"+ c #FFBF00",
"@ c #FFBF00",
"# c #FFBF00",
"$ c #FFBF00",
/* pixels */
"                           ",
"                           ",
"                           ",
"                           ",
"                           ",
"                           ",
"                           ",
"                           ",
"                           ",
"                           ",
"                           ",
"                           ",
"                           ",
"                           ",
"                           ",
"+...........$              ",
"+...........$              ",
"+...........$              ",
"+...........$              ",
"+...X                      ",
"+...X                      ",
"@....                      ",
"#....+                     ",
" X........X+$              ",
" @..........X#             ",
"  +...........$            ",
"   #OX........O            ",
"          o....            ",
"          @....            ",
"         $o....            ",
"+.............O            ",
"+.............$            ",
"+...........X#             ",
"+.........X+$              ",
"                           ",
"                           ",
"                           ",
"                           ",
"                           ",
"                           ",
"                           ",
"                           ",
"                           ",
"                           ",
"                           ",
"                           ",
"                           ",
"                           ",
"                           ",
"                           ",
"                           ",
"                           ",
"                           ",
"                           ",
"                           ",
"                           ",
"                           ",
"                           ",
"                           ",
"                           "
};

/* XPM */
static char *xpm_6[] = {
/* columns rows colors chars-per-pixel */
"27 60 9 1 ",
"  c #FFFFFE",
". c #FFBF00",
"X c #FFBF00",
"o c #FFBF00",
"O c #FFBF00",
"+ c #FFBF00",
"@ c #FFBF00",
"# c #FFBF00",
"$ c #FFBF00",
/* pixels */
"                           ",
"                           ",
"                           ",
"                           ",
"                           ",
"                           ",
"                           ",
"                           ",
"                           ",
"                           ",
"                           ",
"                           ",
"                           ",
"                           ",
"                           ",
"   #OX..Xo#                ",
"  +........O               ",
" @..........+              ",
" X...........$             ",
"#....+  @....@             ",
"@....    X...+             ",
"+...X                      ",
"+...X                      ",
"+.........X+$              ",
"+...........X#             ",
"+.............$            ",
"+.............O            ",
"+...X     o....            ",
"@...X     @....            ",
"#....@    o....            ",
" X............O            ",
" @............$            ",
"  +.........X#             ",
"   #OX....X+$              ",
"                           ",
"                           ",
"                           ",
"                           ",
"                           ",
"                           ",
"                           ",
"                           ",
"                           ",
"                           ",
"                           ",
"                           ",
"                           ",
"                           ",
"                           ",
"                           ",
"                           ",
"                           ",
"                           ",
"                           ",
"                           ",
"                           ",
"                           ",
"                           ",
"                           ",
"                           "
};

/* XPM */
static char *xpm_7[] = {
/* columns rows colors chars-per-pixel */
"24 60 9 1 ",
"  c #FFFFFE",
". c #FFBF00",
"X c #FFBF00",
"o c #FFBF00",
"O c #FFBF00",
"+ c #FFBF00",
"@ c #FFBF00",
"# c #FFBF00",
"$ c #FFBF00",
/* pixels */
"                        ",
"                        ",
"                        ",
"                        ",
"                        ",
"                        ",
"                        ",
"                        ",
"                        ",
"                        ",
"                        ",
"                        ",
"                        ",
"                        ",
"                        ",
"+...........$           ",
"+...........$           ",
"+...........$           ",
"+...........$           ",
"       +....$           ",
"       X...O            ",
"      @....$            ",
"      X...O             ",
"     @....$             ",
"     X...O              ",
"    @....$              ",
"    X...O               ",
"   @....$               ",
"   o...O                ",
"  #....$                ",
"  o...O                 ",
" #....$                 ",
" o...O                  ",
"#....$                  ",
"                        ",
"                        ",
"                        ",
"                        ",
"                        ",
"                        ",
"                        ",
"                        ",
"                        ",
"                        ",
"                        ",
"                        ",
"                        ",
"                        ",
"                        ",
"                        ",
"                        ",
"                        ",
"                        ",
"                        ",
"                        ",
"                        ",
"                        ",
"                        ",
"                        ",
"                        "
};

/* XPM */
static char *xpm_8[] = {
/* columns rows colors chars-per-pixel */
"25 60 9 1 ",
"  c #FFFFFE",
". c #FFBF00",
"X c #FFBF00",
"o c #FFBF00",
"O c #FFBF00",
"+ c #FFBF00",
"@ c #FFBF00",
"# c #FFBF00",
"$ c #FFBF00",
/* pixels */
"                         ",
"                         ",
"                         ",
"                         ",
"                         ",
"                         ",
"                         ",
"                         ",
"                         ",
"                         ",
"                         ",
"                         ",
"                         ",
"                         ",
"                         ",
"   #OX..Xo#              ",
"  +........O             ",
" @..........+            ",
" X...........$           ",
"#....+  @....+           ",
"@....    o...O           ",
"@....    X...O           ",
"#....+  @....@           ",
" o..........X            ",
" @..........+            ",
" o..........X            ",
"#............@           ",
"@....@  #....O           ",
"@....    o...O           ",
"#....@  #....+           ",
" X...........$           ",
" @..........+            ",
"  +........O             ",
"   #OX...o#              ",
"                         ",
"                         ",
"                         ",
"                         ",
"                         ",
"                         ",
"                         ",
"                         ",
"                         ",
"                         ",
"                         ",
"                         ",
"                         ",
"                         ",
"                         ",
"                         ",
"                         ",
"                         ",
"                         ",
"                         ",
"                         ",
"                         ",
"                         ",
"                         ",
"                         ",
"                         "
};

/* XPM */
static char *xpm_9[] = {
/* columns rows colors chars-per-pixel */
"27 60 9 1 ",
"  c #FFFFFE",
". c #FFBF00",
"X c #FFBF00",
"o c #FFBF00",
"O c #FFBF00",
"+ c #FFBF00",
"@ c #FFBF00",
"# c #FFBF00",
"$ c #FFBF00",
/* pixels */
"                           ",
"                           ",
"                           ",
"                           ",
"                           ",
"                           ",
"                           ",
"                           ",
"                           ",
"                           ",
"                           ",
"                           ",
"                           ",
"                           ",
"                           ",
"   #OX....X+$              ",
"  +.........X$             ",
" @...........X$            ",
" X............+            ",
"#....+   $o...X            ",
"@....     @....            ",
"@....     #....$           ",
"#....+    #....$           ",
" X.............$           ",
" @.............$           ",
"  +............$           ",
"   #OX.........$           ",
"          #....$           ",
"  ....@   #....            ",
"  o...X$  o...X            ",
"  +...........+            ",
"   X.........X$            ",
"   $X.......X#             ",
"     +X...X+$              ",
"                           ",
"                           ",
"                           ",
"                           ",
"                           ",
"                           ",
"                           ",
"                           ",
"                           ",
"                           ",
"                           ",
"                           ",
"                           ",
"                           ",
"                           ",
"                           ",
"                           ",
"                           ",
"                           ",
"                           ",
"                           ",
"                           ",
"                           ",
"                           ",
"                           ",
"                           "
};
