/* XPM */
static char *play_again_xpm[] = {
/* columns rows colors chars-per-pixel */
"203 69 9 1 ",
"  c #FFFFFE",
". c #FFBF00",
"X c #FFBF00",
"o c #FFBF00",
"O c #FFBF00",
"+ c #FFBF00",
"@ c #FFBF00",
"# c #FFBF00",
"$ c #FFBF00",
/* pixels */
"                                                                                                                                                                                                           ",
"                                                                                                                                                                                                           ",
"                                                                                                                                                                                                           ",
"                                                                                                                                                                                                           ",
"                                                                                                                                                                                                           ",
"                                                                                                                                                                                                           ",
"                                                                                                                                                                                                           ",
"                                                                                                                                                                                                           ",
"                                                                                                                                                                                                           ",
"                                                                                                                                                                                                           ",
"                                                                                                                                                                                                           ",
"                                                                                                                                                                                                           ",
"                                                                                                                                                                                                           ",
"                                                                                                                                                                                                           ",
"                                                                                                                                                                                                           ",
"#.............Xo+$     #......#                 X......         ......O     O......                 X......             $+oX.....Xo+$             X......        #......#     $+oX.....Xo+$                ",
"#.................+    #......#                $.......#        +......     ......+                $.......#           @.............+           $.......#       #......#    @.............+               ",
"#..................o   #......#                @.......+        $......@   @......$                @.......+          O...............O          @.......+       #......#   O...............o              ",
"#...................O  #......#                O.......o         o.....O   o.....o                 O.......o         +.................+         O.......o       #......#  +.................O             ",
"#....................# #......#                X........         #......  $......#                 X........        $...................$        X........       #......# $...................#            ",
"#....................o #......#               #.........#         X.....@ @.....X                 #.........#       O...................O       #.........#      #......# O...................o            ",
"#......#      #X......$#......#               +.........O         @.....o o.....@                 +.........O       X.....X#     #......X       +.........O      #......# X.....X#     #X......            ",
"#......#       @......##......#               o.........X          ......#......                  o.........X      $......@       +......$      o.........X      #......#$......@       #......#           ",
"#......#       $......##......#               ...........$         +.....X.....+                  ...........$     $......#       #......#      ...........$     #......#$......#       $......#           ",
"#......#       @......##......#              #...........@         $...........$                 #...........@     #......#                    #...........@     #......##......#       $......@           ",
"#......#      #X...... #......#              +...........O          o.........O                  +...........O     #......#                    +...........O     #......##......#       $......@           ",
"#....................o #......#              o...........X          #.........#                  o...........X     #......#     #oooooooo#     o...........X     #......##......#       $......@           ",
"#....................# #......#             $......o......$          X.......X                  $......o......$    #......#     #........@    $......o......$    #......##......#       $......@           ",
"#...................O  #......#             @......$......+          @.......@                  @......$......+    #......#     #........@    @......$......+    #......##......#       $......@           ",
"#..................o   #......#             O.....X o.....o           X.....X                   O.....X o.....o    #......#     #........@    O.....X o.....o    #......##......#       $......@           ",
"#.................+    #......#             X.....O +......           o.....o                   X.....O +......    #......#     #........@    X.....O +......    #......##......#       $......@           ",
"#.............Xo+$     #......#            $......@ #......#          o.....o                  $......@ #......#   #......#     #........@   $......@ #......#   #......##......#       $......@           ",
"#......#               #......#            @......$  X.....+          o.....o                  @......$  X.....+   #......#     #Oo......@   @......$  X.....+   #......##......#       $......@           ",
"#......#               #......#            O.....o   O.....o          o.....o                  O.....o   O.....o   #......#       $......@   O.....o   O.....o   #......##......#       $......@           ",
"#......#               $......#            X.....+   @......          o.....o                  X.....+   @......   $......#       $......#   X.....+   @......   #......##......#       $......@           ",
"#......#               $......+           #......#   $......#         o.....o                 #......#   $......#  $......@       #......#  #......#   $......#  #......##......#       $......@           ",
"#......#                X.....X#          +......     X.....O         o.....o                 +......     X.....O   X.....X#     #X......$  +......     X.....O  #......##......#       $......@           ",
"#......#                O.............X   o.....o     O.....X         o.....o                 o.....o     O.....X   O...................X   o.....o     O.....X  #......##......#       $......@           ",
"#......#                $.............X   ......+     @......$        o.....o                 ......+     @......$  $...................@   ......+     @......$ #......##......#       $......@           ",
"#......#                 +............X  #......$     $......@        o.....o                #......$     $......@   +.................o   #......$     $......@ #......##......#       $......@           ",
"#......#                  O...........X  +.....X       o.....O        o.....o                +.....X       o.....O    O...............X$   +.....X       o.....O #......##......#       $......@           ",
"#......#                   @..........X  o.....O       +.....X        o.....o                o.....O       +.....X     +.............O     o.....O       +.....X #......##......#       $......@           ",
"#......#                    $+oX......X $......@       #......$       o.....o               $......@       #......$     $+oX.....Xo+$     $......@       #......$#......##......#       $......@           ",
"                                                                                                                                                                                                           ",
"                                                                                                                                                                                                           ",
"                                                                                                                                                                                                           ",
"                                                                                                                                                                                                           ",
"                                                                                                                                                                                                           ",
"                                                                                                                                                                                                           ",
"                                                                                                                                                                                                           ",
"                                                                                                                                                                                                           ",
"                                                                                                                                                                                                           ",
"                                                                                                                                                                                                           ",
"                                                                                                                                                                                                           ",
"                                                                                                                                                                                                           ",
"                                                                                                                                                                                                           ",
"                                                                                                                                                                                                           ",
"                                                                                                                                                                                                           ",
"                                                                                                                                                                                                           ",
"                                                                                                                                                                                                           ",
"                                                                                                                                                                                                           ",
"                                                                                                                                                                                                           ",
"                                                                                                                                                                                                           ",
"                                                                                                                                                                                                           ",
"                                                                                                                                                                                                           ",
"                                                                                                                                                                                                           ",
"                                                                                                                                                                                                           ",
"                                                                                                                                                                                                           ",
"                                                                                                                                                                                                           "
};
