/* XPM */
static char * play_button_xpm[] = {
/* columns rows colors chars-per-pixel */
"95 69 9 1 ",
"  c #FFFFFE",
". c #FFBF00",
"X c #FFBF00",
"o c #FFBF00",
"O c #FFBF00",
"+ c #FFBF00",
"@ c #FFBF00",
"# c #FFBF00",
"$ c #FFBF00",
/* pixels */
"                                                                                               ",
"                                                                                               ",
"                                                                                               ",
"                                                                                               ",
"                                                                                               ",
"                                                                                               ",
"                                                                                               ",
"                                                                                               ",
"                                                                                               ",
"                                                                                               ",
"                                                                                               ",
"                                                                                               ",
"                                                                                               ",
"                                                                                               ",
"                                                                                               ",
"#.............Xo+$     #......#                 X......         ......O     O......            ",
"#.................+    #......#                $.......#        +......     ......+            ",
"#..................o   #......#                @.......+        $......@   @......$            ",
"#...................O  #......#                O.......o         o.....O   o.....o             ",
"#....................# #......#                X........         #......  $......#             ",
"#....................o #......#               #.........#         X.....@ @.....X              ",
"#......#      #X......$#......#               +.........O         @.....o o.....@              ",
"#......#       @......##......#               o.........X          ......#......               ",
"#......#       $......##......#               ...........$         +.....X.....+               ",
"#......#       @......##......#              #...........@         $...........$               ",
"#......#      #X...... #......#              +...........O          o.........O                ",
"#....................o #......#              o...........X          #.........#                ",
"#....................# #......#             $......o......$          X.......X                 ",
"#...................O  #......#             @......$......+          @.......@                 ",
"#..................o   #......#             O.....X o.....o           X.....X                  ",
"#.................+    #......#             X.....O +......           o.....o                  ",
"#.............Xo+$     #......#            $......@ #......#          o.....o                  ",
"#......#               #......#            @......$  X.....+          o.....o                  ",
"#......#               #......#            O.....o   O.....o          o.....o                  ",
"#......#               $......#            X.....+   @......          o.....o                  ",
"#......#               $......+           #......#   $......#         o.....o                  ",
"#......#                X.....X#          +......     X.....O         o.....o                  ",
"#......#                O.............X   o.....o     O.....X         o.....o                  ",
"#......#                $.............X   ......+     @......$        o.....o                  ",
"#......#                 +............X  #......$     $......@        o.....o                  ",
"#......#                  O...........X  +.....X       o.....O        o.....o                  ",
"#......#                   @..........X  o.....O       +.....X        o.....o                  ",
"#......#                    $+oX......X $......@       #......$       o.....o                  ",
"                                                                                               ",
"                                                                                               ",
"                                                                                               ",
"                                                                                               ",
"                                                                                               ",
"                                                                                               ",
"                                                                                               ",
"                                                                                               ",
"                                                                                               ",
"                                                                                               ",
"                                                                                               ",
"                                                                                               ",
"                                                                                               ",
"                                                                                               ",
"                                                                                               ",
"                                                                                               ",
"                                                                                               ",
"                                                                                               ",
"                                                                                               ",
"                                                                                               ",
"                                                                                               ",
"                                                                                               ",
"                                                                                               ",
"                                                                                               ",
"                                                                                               ",
"                                                                                               "
};
