/* XPM */
static char *you_win_xpm[] = {
/* columns rows colors chars-per-pixel */
"147 69 9 1 ",
"  c #FFFFFE",
". c #FFBF00",
"X c #FFBF00",
"o c #FFBF00",
"O c #FFBF00",
"+ c #FFBF00",
"@ c #FFBF00",
"# c #FFBF00",
"$ c #FFBF00",
/* pixels */
"                                                                                                                                                   ",
"                                                                                                                                                   ",
"                                                                                                                                                   ",
"                                                                                                                                                   ",
"                                                                                                                                                   ",
"                                                                                                                                                   ",
"                                                                                                                                                   ",
"                                                                                                                                                   ",
"                                                                                                                                                   ",
"                                                                                                                                                   ",
"                                                                                                                                                   ",
"                                                                                                                                                   ",
"                                                                                                                                                   ",
"                                                                                                                                                   ",
"                                                                                                                                                   ",
" ......O     O......      $+oX.....Xo+$     #......#       $......@        #......#              O.....o #......#     $+oX.....Xo+$                ",
" +......     ......+     @.............+    #......#       $......@        #......#              O.....o #......#    @.............+               ",
" $......@   @......$    O...............o   #......#       $......@        #......#              O.....o #......#   O...............o              ",
"  o.....O   o.....o    +.................O  #......#       $......@        #......#              O.....o #......#  +.................O             ",
"  #......  $......#   $...................# #......#       $......@        #......#              O.....o #......# $...................#            ",
"   X.....@ @.....X    O...................o #......#       $......@        #......#              O.....o #......# O...................o            ",
"   @.....o o.....@    X.....X#     #X...... #......#       $......@        #......#              O.....o #......# X.....X#     #X......            ",
"    ......#......    $......@       #......##......#       $......@        #......#              O.....o #......#$......@       #......#           ",
"    +.....X.....+    $......#       $......##......#       $......@        #......#              O.....o #......#$......#       $......#           ",
"    $...........$    #......#       $......@#......#       $......@        #......#              O.....o #......##......#       $......@           ",
"     o.........O     #......#       $......@#......#       $......@        #......#              O.....o #......##......#       $......@           ",
"     #.........#     #......#       $......@#......#       $......@        #......#   @oooooo    O.....o #......##......#       $......@           ",
"      X.......X      #......#       $......@#......#       $......@        #......#   @......    O.....o #......##......#       $......@           ",
"      @.......@      #......#       $......@#......#       $......@        #......#   @......    O.....o #......##......#       $......@           ",
"       X.....X       #......#       $......@#......#       $......@        #......#   @......    O.....o #......##......#       $......@           ",
"       o.....o       #......#       $......@#......#       $......@        #......#   @......    O.....o #......##......#       $......@           ",
"       o.....o       #......#       $......@#......#       $......@        #......#   @......    O.....o #......##......#       $......@           ",
"       o.....o       #......#       $......@#......#       $......@        #......#   @......    O.....o #......##......#       $......@           ",
"       o.....o       #......#       $......@#......#       $......@        #......#   @......    O.....o #......##......#       $......@           ",
"       o.....o       $......#       $......#$......#       $......#        $......#   @......    O.....o #......##......#       $......@           ",
"       o.....o       $......@       #......#$......@       #......#        $......+   +......#   o.....O #......##......#       $......@           ",
"       o.....o        X.....X#     #X......  X.....X#     #X......          X.....X# @.......o$$+......+ #......##......#       $......@           ",
"       o.....o        O...................o  O...................o          O..........................# #......##......#       $......@           ",
"       o.....o        $...................#  $...................#          $.........................o  #......##......#       $......@           ",
"       o.....o         +.................O    +.................O            +.......................X$  #......##......#       $......@           ",
"       o.....o          O...............o      O...............o              O......................#   #......##......#       $......@           ",
"       o.....o           +.............+        +.............+                @........X@O........o$    #......##......#       $......@           ",
"       o.....o            $+oX.....Xo+$          $+oX.....Xo+$                  $+oX.Xo@   $+o..XO@      #......##......#       $......@           ",
"                                                                                                                                                   ",
"                                                                                                                                                   ",
"                                                                                                                                                   ",
"                                                                                                                                                   ",
"                                                                                                                                                   ",
"                                                                                                                                                   ",
"                                                                                                                                                   ",
"                                                                                                                                                   ",
"                                                                                                                                                   ",
"                                                                                                                                                   ",
"                                                                                                                                                   ",
"                                                                                                                                                   ",
"                                                                                                                                                   ",
"                                                                                                                                                   ",
"                                                                                                                                                   ",
"                                                                                                                                                   ",
"                                                                                                                                                   ",
"                                                                                                                                                   ",
"                                                                                                                                                   ",
"                                                                                                                                                   ",
"                                                                                                                                                   ",
"                                                                                                                                                   ",
"                                                                                                                                                   ",
"                                                                                                                                                   ",
"                                                                                                                                                   ",
"                                                                                                                                                   "
};
